<svg width="480" height="480" viewBox="0 0 480 480" fill="none" xmlns="http://www.w3.org/2000/svg">
<path d="M183 95C183 124.271 159.271 148 130 148C100.729 148 77 124.271 77 95C77 65.7289 100.729 42 130 42C159.271 42 183 65.7289 183 95Z" fill="#C4C4C4"/>
<circle cx="350" cy="95" r="53" fill="#C4C4C4"/>
<path d="M183 235C183 264.271 159.271 288 130 288C100.729 288 77 264.271 77 235C77 205.729 100.729 182 130 182C159.271 182 183 205.729 183 235Z" fill="#C4C4C4"/>
<circle cx="350" cy="235" r="53" fill="#C4C4C4"/>
<path d="M183 375C183 404.271 159.271 428 130 428C100.729 428 77 404.271 77 375C77 345.729 100.729 322 130 322C159.271 322 183 345.729 183 375Z" fill="#C4C4C4"/>
<circle cx="350" cy="375" r="53" fill="#C4C4C4"/>
</svg>
