<svg width="358" height="412" viewBox="0 0 358 412" fill="none" xmlns="http://www.w3.org/2000/svg">
<path d="M122 66C122 95.2711 98.2711 119 69 119C39.7289 119 16 95.2711 16 66C16 36.7289 39.7289 13 69 13C98.2711 13 122 36.7289 122 66Z" fill="#C4C4C4"/>
<circle cx="289" cy="66" r="53" fill="#C4C4C4"/>
<path d="M122 206C122 235.271 98.2711 259 69 259C39.7289 259 16 235.271 16 206C16 176.729 39.7289 153 69 153C98.2711 153 122 176.729 122 206Z" fill="#C4C4C4"/>
<circle cx="289" cy="206" r="53" fill="#C4C4C4"/>
<path d="M122 346C122 375.271 98.2711 399 69 399C39.7289 399 16 375.271 16 346C16 316.729 39.7289 293 69 293C98.2711 293 122 316.729 122 346Z" fill="#C4C4C4"/>
<circle cx="289" cy="346" r="53" fill="#C4C4C4"/>
</svg>
